<svg xmlns="http://www.w3.org/2000/svg" viewBox="0 0 640 420" role="img" aria-label="AEG FSE73768P running card preview">
  <defs>
    <linearGradient id="bg" x1="0" y1="0" x2="0" y2="1">
      <stop offset="0" stop-color="#1b1216"/>
      <stop offset="1" stop-color="#0e0f12"/>
    </linearGradient>
    <linearGradient id="cab" x1="0" y1="0" x2="1" y2="1">
      <stop offset="0" stop-color="#2a2c31"/>
      <stop offset="1" stop-color="#121316"/>
    </linearGradient>
    <radialGradient id="glow" cx="50%" cy="40%" r="60%">
      <stop offset="0" stop-color="#7ad7ff" stop-opacity="0.55"/>
      <stop offset="1" stop-color="#0a3a52" stop-opacity="0"/>
    </radialGradient>
  </defs>
  <rect width="640" height="420" rx="28" fill="url(#bg)"/>
  <circle cx="200" cy="210" r="148" fill="none" stroke="rgba(255,255,255,0.08)" stroke-width="8"/>
  <circle cx="200" cy="210" r="148" fill="none" stroke="#C8102E" stroke-width="8" stroke-linecap="round" stroke-dasharray="360 930" transform="rotate(-90 200 210)"/>
  <rect x="94" y="72" width="212" height="292" rx="18" fill="url(#cab)" stroke="#3a3d44"/>
  <rect x="102" y="80" width="196" height="26" rx="6" fill="#0b0c0e"/>
  <circle cx="132" cy="93" r="4.2" fill="#3d4148"/>
  <circle cx="166" cy="93" r="4.2" fill="#3d4148"/>
  <circle cx="200" cy="93" r="4.2" fill="#3d4148"/>
  <circle cx="234" cy="93" r="4.2" fill="#3d4148"/>
  <circle cx="268" cy="93" r="4.2" fill="#C8102E"/>
  <rect x="114" y="118" width="172" height="228" rx="8" fill="#1c242c"/>
  <ellipse cx="200" cy="236" rx="70" ry="18" fill="url(#glow)"/>
  <g transform="translate(200 176) rotate(28)">
    <rect x="-52" y="-3" width="104" height="6" rx="3" fill="#b9c2cc"/>
    <circle r="7" fill="#e8eef4"/>
  </g>
  <g transform="translate(200 294) rotate(-18)">
    <rect x="-60" y="-3.5" width="120" height="7" rx="3.5" fill="#c5ced8"/>
    <circle r="8" fill="#eef3f7"/>
  </g>
  <circle cx="140" cy="168" r="2.4" fill="#8be7ff"/>
  <circle cx="168" cy="196" r="2.4" fill="#8be7ff"/>
  <circle cx="214" cy="188" r="2.4" fill="#8be7ff"/>
  <circle cx="246" cy="214" r="2.4" fill="#8be7ff"/>
  <ellipse cx="200" cy="374" rx="92" ry="14" fill="#C8102E" opacity="0.75"/>
  <text x="400" y="70" fill="#9aa0aa" font-family="ui-sans-serif,system-ui" font-size="12" letter-spacing="3">AEG · 7000 COMFORTLIFT</text>
  <text x="400" y="108" fill="#f4f5f7" font-family="ui-sans-serif,system-ui" font-size="28" font-weight="700">FSE73768P</text>
  <rect x="400" y="124" width="86" height="26" rx="13" fill="#C8102E"/>
  <text x="443" y="142" text-anchor="middle" fill="white" font-family="ui-sans-serif,system-ui" font-size="12" font-weight="600">Running</text>
  <text x="400" y="196" fill="#f4f5f7" font-family="ui-sans-serif,system-ui" font-size="36" font-weight="700">2h 48m</text>
  <text x="400" y="226" fill="#b4b9c2" font-family="ui-sans-serif,system-ui" font-size="16">Main wash · 50°C</text>
  <text x="400" y="268" fill="#9aa0aa" font-family="ui-sans-serif,system-ui" font-size="14">ECO · ExtraSilent · 11.0 L · 0.86 kWh</text>
  <rect x="400" y="292" width="18" height="8" rx="4" fill="#3ddc84"/>
  <rect x="422" y="292" width="18" height="8" rx="4" fill="#3ddc84"/>
  <rect x="444" y="292" width="18" height="8" rx="4" fill="#3ddc84"/>
  <rect x="466" y="292" width="18" height="8" rx="4" fill="#3ddc84"/>
  <rect x="488" y="292" width="18" height="8" rx="4" fill="#3ddc84"/>
  <text x="516" y="301" fill="#8b9098" font-family="ui-sans-serif,system-ui" font-size="11">ECO</text>
</svg>
